<?xml version="1.0" encoding="utf-8"?>
<!-- Generator: Adobe Illustrator 18.1.1, SVG Export Plug-In . SVG Version: 6.00 Build 0)  -->
<!DOCTYPE svg PUBLIC "-//W3C//DTD SVG 1.1//EN" "http://www.w3.org/Graphics/SVG/1.1/DTD/svg11.dtd">
<svg version="1.1" id="Layer_1" xmlns:sketch="http://www.bohemiancoding.com/sketch/ns"
	 xmlns="http://www.w3.org/2000/svg" xmlns:xlink="http://www.w3.org/1999/xlink" x="0px" y="0px" viewBox="-134.2 611 329.5 331.5"
	 enable-background="new -134.2 611 329.5 331.5" xml:space="preserve">
<title></title>
<path id="g_x2B_" fill="#FFFFFF" d="M10.6,736.5c10.2-10.2,11.2-23.5,11.2-31.6c0-31.6-18.4-79.6-55.1-79.6
	c-11.2,0-23.5,6.1-30.6,14.3C-71,648.8-73,660-73,672.2c0,29.6,17.3,77.5,54.1,77.5C-8.8,748.7,3.5,742.6,10.6,736.5L10.6,736.5z
	 M-2.7,819.1c-3.1,0-6.1,0-10.2,0s-27.5,1-45.9,7.1c-9.2,3.1-37.7,14.3-37.7,44.9c0,30.6,29.6,53,76.5,53
	c41.8,0,64.3-20.4,64.3-46.9C45.3,853.8,31,842.6-2.7,819.1L-2.7,819.1z M124.8,775.2H77.9v-23.5h46.9v-46.9h23.5v46.9h46.9v23.5
	h-46.9v46.9h-23.5V775.2z M29,625.3c10.2,8.2,30.6,25.5,30.6,59.2c0,32.6-18.4,46.9-36.7,62.2c-6.1,6.1-12.2,12.2-12.2,21.4
	s6.1,15.3,11.2,18.4l15.3,12.2c19.4,16.3,36.7,30.6,36.7,61.2c0,40.8-39.8,82.6-114.2,82.6c-63.2,0-93.8-29.6-93.8-62.2
	c0-15.3,8.2-37.7,33.7-53c26.5-16.3,63.2-18.4,82.6-20.4c-6.1-8.2-13.3-16.3-13.3-29.6c0-7.1,2-12.2,4.1-17.3c-5.1,0-9.2,1-14.3,1
	c-45.9,0-72.4-34.7-72.4-68.3c0-20.4,9.2-41.8,27.5-58.1C-61.8,614.1-32.2,611-8.8,611H81l-27.5,15.3L29,625.3L29,625.3z"/>
</svg>
