<?xml version="1.0" encoding="utf-8"?>
<!-- Generator: Adobe Illustrator 18.1.1, SVG Export Plug-In . SVG Version: 6.00 Build 0)  -->
<!DOCTYPE svg PUBLIC "-//W3C//DTD SVG 1.1//EN" "http://www.w3.org/Graphics/SVG/1.1/DTD/svg11.dtd">
<svg version="1.1" id="Layer_1" xmlns:sketch="http://www.bohemiancoding.com/sketch/ns"
	 xmlns="http://www.w3.org/2000/svg" xmlns:xlink="http://www.w3.org/1999/xlink" x="0px" y="0px"
	 viewBox="-145.5 586.5 343.7 340.7" enable-background="new -145.5 586.5 343.7 340.7" xml:space="preserve">
<title></title>
<path fill="#FFFFFF" d="M-52.6,703.8h-92.8v-12.2l0,0c0,113.2,0,184.6,0,184.6c0,51,51,51,51,51h239.7c0,0,51,0,51-51V703.8l0,0
	v-12.2h-100c-16.3-21.4-41.8-35.7-70.4-35.7s-54.1,14.3-70.4,35.7h-100c0-17.3,0-35.7,0-55.1c0-32.6,20.4-43.9,35.7-47.9v68.3h12.2
	v-70.4l0,0c2,0,4.1,0,4.1,0h239.7c0,0,51,0,51,51v66.3h-92.8c6.1,12.2,10.2,26.5,10.2,40.8c0,49-39.8,88.7-88.7,88.7
	s-88.7-39.8-88.7-88.7C-62.8,730.4-59.8,716.1-52.6,703.8L-52.6,703.8z M134,610c-11.2,0-20.4,9.2-20.4,20.4v18.4
	c0,11.2,9.2,20.4,20.4,20.4h18.4c11.2,0,20.4-9.2,20.4-20.4v-18.4c0-11.2-9.2-20.4-20.4-20.4H134z M-62.8,586.5v70.4h12.2v-70.4
	H-62.8z M-86.3,586.5v70.4h12.2v-70.4H-86.3z M24.9,816c38.8,0,70.4-31.6,70.4-70.4s-31.6-70.4-70.4-70.4
	c-38.8,0-70.4,31.6-70.4,70.4S-13.9,816,24.9,816z M24.9,792.6c25.5,0,46.9-21.4,46.9-46.9s-21.4-46.9-46.9-46.9S-22,720.2-22,745.7
	S-0.6,792.6,24.9,792.6z"/>
</svg>
