<?xml version="1.0" encoding="utf-8"?>
<!-- Generator: Adobe Illustrator 18.1.1, SVG Export Plug-In . SVG Version: 6.00 Build 0)  -->
<!DOCTYPE svg PUBLIC "-//W3C//DTD SVG 1.1//EN" "http://www.w3.org/Graphics/SVG/1.1/DTD/svg11.dtd">
<svg version="1.1" id="Layer_1" xmlns:sketch="http://www.bohemiancoding.com/sketch/ns"
	 xmlns="http://www.w3.org/2000/svg" xmlns:xlink="http://www.w3.org/1999/xlink" x="0px" y="0px"
	 viewBox="-110.8 621.2 283.6 282.5" enable-background="new -110.8 621.2 283.6 282.5" xml:space="preserve">
<title></title>
<path fill="#FFFFFF" d="M-51.6,903.8V717.1h-58.1v186.7H-51.6z M-51.6,650.8c0-16.3-11.2-29.6-29.6-29.6s-29.6,12.2-29.6,29.6
	c0,16.3,11.2,29.6,29.6,29.6l0,0C-62.8,680.4-51.6,667.1-51.6,650.8z M42.2,903.8V797.7c0-6.1,0-11.2,2-15.3
	c4.1-11.2,15.3-23.5,32.6-23.5c22.4,0,37.7,13.3,37.7,38.8v106.1h58.1V794.6c0-58.1-31.6-85.7-72.4-85.7c-33.7,0-49,19.4-57.1,31.6
	v-24.5h-58.1c1,18.4,0,187.7,0,187.7H42.2z"/>
</svg>
