<?xml version="1.0" encoding="utf-8"?>
<!-- Generator: Adobe Illustrator 18.1.1, SVG Export Plug-In . SVG Version: 6.00 Build 0)  -->
<!DOCTYPE svg PUBLIC "-//W3C//DTD SVG 1.1//EN" "http://www.w3.org/Graphics/SVG/1.1/DTD/svg11.dtd">
<svg version="1.1" id="Layer_1" xmlns:sketch="http://www.bohemiancoding.com/sketch/ns"
	 xmlns="http://www.w3.org/2000/svg" xmlns:xlink="http://www.w3.org/1999/xlink" x="0px" y="0px"
	 viewBox="-109.8 586.5 282.5 353.7" enable-background="new -109.8 586.5 282.5 353.7" xml:space="preserve">
<title></title>
<path id="Pinterest_1_" fill="#FFFFFF" d="M59.6,855.8c67.3,0,113.2-62.2,113.2-146.9c0-63.2-53-122.4-132.6-122.4
	c-100,0-149.9,72.4-149.9,133.6c0,36.7,13.3,69.4,42.8,81.6c5.1,2,9.2,0,10.2-5.1c1-4.1,3.1-13.3,4.1-17.3c1-5.1,1-7.1-3.1-12.2
	c-8.2-10.2-14.3-23.5-14.3-41.8c0-54.1,39.8-102,103-102c56.1,0,86.7,34.7,86.7,81.6c0,61.2-26.5,114.2-66.3,114.2
	c-22.4,0-38.8-18.4-32.6-40.8c6.1-27.5,18.4-56.1,18.4-75.5c0-17.3-9.2-31.6-28.6-31.6c-22.4,0-40.8,23.5-40.8,55.1
	c0,20.4,7.1,33.7,7.1,33.7s-22.4,98.9-26.5,116.3c-4.1,16.3-4.1,33.7-4.1,47.9c2,13.3,14.3,23.5,25.5,9.2
	c8.2-12.2,16.3-28.6,20.4-44.9c3.1-9.2,14.3-59.2,14.3-59.2C15.7,843.6,36.1,855.8,59.6,855.8z"/>
</svg>
