<?xml version="1.0" encoding="utf-8"?>
<!-- Generator: Adobe Illustrator 18.1.1, SVG Export Plug-In . SVG Version: 6.00 Build 0)  -->
<!DOCTYPE svg PUBLIC "-//W3C//DTD SVG 1.1//EN" "http://www.w3.org/Graphics/SVG/1.1/DTD/svg11.dtd">
<svg version="1.1" id="Layer_1" xmlns:sketch="http://www.bohemiancoding.com/sketch/ns"
	 xmlns="http://www.w3.org/2000/svg" xmlns:xlink="http://www.w3.org/1999/xlink" x="0px" y="0px"
	 viewBox="-98.5 633.5 260.1 259.1" enable-background="new -98.5 633.5 260.1 259.1" xml:space="preserve">
<title>rss</title>
<description>Created with Sketch.</description>
<path sketch:type="MSShapeGroup" fill="#FFFFFF" d="M-46.5,703.8c-6.1,0-11.2,0-17.3,1v34.7c5.1-1,11.2-2,17.3-2
	c56.1,0,102,45.9,102,102c0,6.1-1,11.2-2,17.3h34.7c1-5.1,1-11.2,1-17.3C90.2,765,29,703.8-46.5,703.8L-46.5,703.8z M-45.5,633.5
	c-6.1,0-11.2,0-17.3,1v34.7c6.1-1,11.2-1,17.3-1c94.9,0,172.4,77.5,172.4,172.4c0,6.1,0,11.2-1,17.3h34.7c0-6.1,1-11.2,1-17.3
	C160.5,726.3,67.7,633.5-45.5,633.5L-45.5,633.5z M-45.5,786.5c-29.6,0-53,23.5-53,53c0,29.6,23.5,53,53,53s53-23.5,53-53
	C7.5,809.9-15.9,786.5-45.5,786.5L-45.5,786.5z"/>
</svg>
