<?xml version="1.0" encoding="utf-8"?>
<!-- Generator: Adobe Illustrator 18.1.1, SVG Export Plug-In . SVG Version: 6.00 Build 0)  -->
<!DOCTYPE svg PUBLIC "-//W3C//DTD SVG 1.1//EN" "http://www.w3.org/Graphics/SVG/1.1/DTD/svg11.dtd">
<svg version="1.1" id="Layer_1" xmlns:sketch="http://www.bohemiancoding.com/sketch/ns"
	 xmlns="http://www.w3.org/2000/svg" xmlns:xlink="http://www.w3.org/1999/xlink" x="0px" y="0px"
	 viewBox="-156.7 622.2 375.4 282.5" enable-background="new -156.7 622.2 375.4 282.5" xml:space="preserve">
<title></title>
<path fill="#FFFFFF" d="M77.9,739.5l35.7-12.2v-22.4c0-45.9-35.7-82.6-82.6-82.6s-82.6,36.7-82.6,82.6v116.3
	c0,11.2-7.1,24.5-23.5,24.5c-16.3,0-23.5-13.3-23.5-24.5v-45.9h-58.1v45.9c0,45.9,37.7,82.6,84.7,82.6S8.6,867,8.6,821.1V704.9
	c0-11.2,4.1-23.5,23.5-23.5s24.5,13.3,24.5,23.5v22.4L77.9,739.5z M161.6,821.1c0,11.2-6.1,23.5-24.5,23.5s-24.5-13.3-24.5-23.5
	v-45.9l-34.7,12.2l-23.5-12.2v47.9c0,45.9,33.7,81.6,79.6,81.6c46.9,0,84.7-36.7,84.7-82.6v-45.9h-58.1v44.9H161.6z"/>
</svg>
