<?xml version="1.0" encoding="utf-8"?>
<!-- Generator: Adobe Illustrator 18.1.1, SVG Export Plug-In . SVG Version: 6.00 Build 0)  -->
<!DOCTYPE svg PUBLIC "-//W3C//DTD SVG 1.1//EN" "http://www.w3.org/Graphics/SVG/1.1/DTD/svg11.dtd">
<svg version="1.1" id="Layer_1" xmlns:sketch="http://www.bohemiancoding.com/sketch/ns"
	 xmlns="http://www.w3.org/2000/svg" xmlns:xlink="http://www.w3.org/1999/xlink" x="0px" y="0px"
	 viewBox="-132.2 621.2 330.5 282.6" enable-background="new -132.2 621.2 330.5 282.6" xml:space="preserve">
<title></title>
<path fill="#FFFFFF" d="M144.2,644.7c-12.2-14.3-29.6-23.5-49-23.5c-37.7-1-67.3,30.6-67.3,70.4c0,6.1,1,11.2,2,16.3
	c-56.1-4.1-106.1-32.6-139.7-76.5c-6.1,10.2-9.2,22.4-9.2,35.7c0,25.5,12.2,46.9,29.6,60.2c-11.2,0-21.4-4.1-30.6-9.2v1
	c0,34.7,23.5,64.3,54.1,71.4c-6.1,2-11.2,2-17.3,2c-4.1,0-8.2-1-12.2-1c8.2,28.6,33.7,50,63.2,50c-23.5,19.4-52,30.6-83.6,30.6
	c-5.1,0-11.2,0-16.3-1c29.6,20.4,65.3,32.6,104,32.6c124.4,0,192.8-108.1,192.8-202c0-3.1,0-6.1,0-9.2
	c13.3-10.2,24.5-22.4,33.7-36.7c-12.2,5.1-25.5,9.2-38.8,10.2c14.3-8.2,24.5-22.4,29.6-38.8C173.8,636.5,159.5,641.6,144.2,644.7z"
	/>
</svg>
