<?xml version="1.0" encoding="utf-8"?>
<!-- Generator: Adobe Illustrator 18.1.1, SVG Export Plug-In . SVG Version: 6.00 Build 0)  -->
<!DOCTYPE svg PUBLIC "-//W3C//DTD SVG 1.1//EN" "http://www.w3.org/Graphics/SVG/1.1/DTD/svg11.dtd">
<svg version="1.1" id="Layer_1" xmlns:sketch="http://www.bohemiancoding.com/sketch/ns"
	 xmlns="http://www.w3.org/2000/svg" xmlns:xlink="http://www.w3.org/1999/xlink" x="0px" y="0px"
	 viewBox="-121.1 561.9 304.7 377.4" enable-background="new -121.1 561.9 304.7 377.4" xml:space="preserve">
<title></title>
<path fill="#FFFFFF" d="M66.7,802.8c-6.1,6.1-1,18.4-1,18.4l47.9,79.6c0,0,8.2,10.2,14.3,10.2c7.1,0,13.3-6.1,13.3-6.1l37.7-54.1
	c0,0,4.1-7.1,4.1-13.3c0-8.2-12.2-11.2-12.2-11.2L81,797.7C81,799.7,72.8,797.7,66.7,802.8L66.7,802.8z M61.6,763
	c4.1,8.2,17.3,5.1,17.3,5.1l89.8-26.5c0,0,12.2-5.1,14.3-11.2c2-6.1-2-14.3-2-14.3l-42.8-50c0,0-4.1-6.1-11.2-7.1
	c-8.2-1-13.3,9.2-13.3,9.2l-50,79.6C62.6,747.7,57.5,755.9,61.6,763L61.6,763z M19.8,732.4C30,729.3,32,714,32,714l-1-127.5
	c0,0-2-15.3-8.2-20.4c-11.2-7.1-14.3-3.1-17.3-3.1L-69,590.6c0,0-7.1,2-11.2,8.2c-5.1,8.2,5.1,21.4,5.1,21.4L2.4,725.3
	C2.4,726.3,10.6,734.4,19.8,732.4L19.8,732.4z M1.4,783.4c0-10.2-12.2-15.3-12.2-15.3l-79.6-39.8c0,0-12.2-5.1-17.3-1
	c-4.1,3.1-8.2,7.1-8.2,11.2l-5.1,64.3c0,0-1,11.2,2,16.3c4.1,7.1,17.3,2,17.3,2l92.8-20.4C-4.7,796.7,1.4,796.7,1.4,783.4L1.4,783.4
	z M24.9,818.1c-8.2-4.1-17.3,4.1-17.3,4.1l-62.2,68.3c0,0-8.2,10.2-6.1,17.3c2,6.1,5.1,9.2,9.2,11.2l62.2,19.4c0,0,7.1,2,13.3,0
	c8.2-2,7.1-15.3,7.1-15.3l1-92.8C32,830.3,32,822.2,24.9,818.1L24.9,818.1z"/>
</svg>
