<?xml version="1.0" encoding="utf-8"?>
<!-- Generator: Adobe Illustrator 18.1.1, SVG Export Plug-In . SVG Version: 6.00 Build 0)  -->
<!DOCTYPE svg PUBLIC "-//W3C//DTD SVG 1.1//EN" "http://www.w3.org/Graphics/SVG/1.1/DTD/svg11.dtd">
<svg version="1.1" id="Layer_1" xmlns:sketch="http://www.bohemiancoding.com/sketch/ns"
	 xmlns="http://www.w3.org/2000/svg" xmlns:xlink="http://www.w3.org/1999/xlink" x="0px" y="0px"
	 viewBox="-156.7 575.3 375.4 376.4" enable-background="new -156.7 575.3 375.4 376.4" xml:space="preserve">
<title></title>
<path fill="#FFFFFF" d="M150.3,750.8H-88.3c-37.7,0-68.3,27.5-68.3,66.3v66.3c0,37.7,30.6,68.3,68.3,68.3h238.7
	c37.7,0,68.3-30.6,68.3-68.3v-65.3C219.7,779.3,188.1,750.8,150.3,750.8z M-41.4,804.8h-23.5v106.1h-22.4V804.8h-23.5v-18.4h68.3
	v18.4H-41.4z M17.7,916H-1.6v-10.2c-4.1,4.1-7.1,6.1-11.2,8.2c-4.1,2-8.2,3.1-11.2,3.1c-4.1,0-8.2-1-10.2-4.1
	c-2-3.1-3.1-7.1-3.1-12.2v-76.5H-18v70.4c0,2,0,4.1,1,5.1c1,1,2,1,4.1,1c1,0,3.1-1,5.1-2c2-1,4.1-3.1,6.1-5.1v-69.4h19.4L17.7,916
	L17.7,916z M100.4,894.6c0,6.1-2,11.2-5.1,15.3c-3.1,3.1-7.1,8.2-13.3,8.2c-4.1,0-13.3-1-16.3-2c-3.1-1-6.1-3.1-8.2-6.1v7.1H37.1
	V789.5h20.4v42.8c3.1-3.1,5.1-5.1,8.2-6.1c3.1-1,11.2-2,14.3-2c6.1,0,11.2-1,14.3,3.1c3.1,4.1,5.1,9.2,5.1,17.3L100.4,894.6
	L100.4,894.6z M171.8,870.1H134v17.3c0,5.1,1,8.2,2,10.2c1,2,3.1,3.1,7.1,3.1c3.1,0,5.1-1,7.1-2c1-2,2-5.1,2-10.2v-4.1h20.4v5.1
	c0,9.2-2,16.3-7.1,21.4c-5.1,5.1-12.2,7.1-22.4,7.1c-9.2,0-16.3-2-21.4-7.1c-5.1-5.1-7.1-12.2-7.1-20.4v-40.8
	c0-8.2,3.1-14.3,8.2-19.4c5.1-5.1,13.3-7.1,21.4-7.1c9.2,0,16.3,2,20.4,7.1c5.1,5.1,7.1,11.2,7.1,20.4V870.1L171.8,870.1z
	 M143.2,836.4c-3.1,0-5.1,1-7.1,2c-1,2-2,4.1-2,8.2v9.2h17.3v-9.2c0-4.1-1-7.1-2-8.2C148.3,837.5,146.3,836.4,143.2,836.4z
	 M65.7,837.5c-1,0-3.1,0-4.1,1c-1,1-3.1,2-4.1,3.1v57.1c2,1,3.1,3.1,5.1,3.1c1,1,3.1,1,5.1,1s10.2-1,11.2-2c1-1,2-3.1,2-6.1v-47.9
	c0-3.1-1-5.1-2-7.1C75.9,838.5,68.7,837.5,65.7,837.5z M91.2,728.3c4.1,0,8.2-1,12.2-3.1c4.1-2,8.2-5.1,12.2-10.2v12.2h21.4V621.2
	h-21.4v80.6c-2,2-4.1,4.1-6.1,6.1c-2,1-4.1,2-6.1,2c-2,0-3.1-1-4.1-2c-1-1-1-3.1-1-5.1v-81.6H76.9V710c0,6.1,1,11.2,4.1,14.3
	C82,726.3,86.1,728.3,91.2,728.3z M27.9,729.3c10.2,0,17.3-3.1,23.5-8.2c5.1-5.1,8.2-12.2,8.2-21.4v-55.1c0-8.2-3.1-14.3-8.2-19.4
	c-6.1-5.1-13.3-8.2-21.4-8.2c-10.2,0-17.3,2-23.5,7.1c-6.1,5.1-8.2,11.2-8.2,19.4v55.1c0,9.2,3.1,16.3,8.2,21.4
	C10.6,727.3,18.8,729.3,27.9,729.3z M18.8,644.7c0-2,1-4.1,2-6.1c2-1,4.1-2,6.1-2c3.1,0,5.1,1,7.1,2s3.1,3.1,3.1,6.1v58.1
	c0,3.1-1,5.1-3.1,7.1c-2,2-4.1,2-7.1,2s-5.1-1-6.1-2c-1-2-2-4.1-2-7.1V644.7L18.8,644.7z M-56.7,727.3h24.5V659l28.6-83.6h-24.5
	l-15.3,57.1h-1l-15.3-57.1h-24.5l28.6,86.7L-56.7,727.3L-56.7,727.3z"/>
</svg>
